# MagicaVoxel @ Ephtracy

# group
o 

# material
mtllib UnitTestChunk100.mtl
usemtl palette

# normals
vn -1 0 0
vn 1 0 0
vn 0 0 1
vn 0 0 -1
vn 0 -1 0
vn 0 1 0

# texcoords
vt 0.263672 0.5
vt 0.271484 0.5
vt 0.306641 0.5

# verts
v -5 -3 4.6
v -5 -3 -5.4
v -5 -2.9 4.6
v -5 -2.9 -5.4
v -4.8 -2.9 4.5
v -4.8 -2.9 0.9
v -4.8 -2.9 -1.3
v -4.8 -2.9 -5.1
v -4.8 -2.8 4.5
v -4.8 -2.8 0.9
v -4.8 -2.8 -1.3
v -4.8 -2.8 -5.1
v -4.6 -2.8 -2.4
v -4.6 -2.8 -3.9
v -4.6 -2.7 -2.4
v -4.6 -2.7 -3.9
v -4.5 -2.7 -2.5
v -4.5 -2.7 -3.8
v -4.5 -2.6 -2.5
v -4.5 -2.6 -3.8
v -4.4 -2.6 -2.5
v -4.4 -2.6 -3.8
v -4.4 -2.5 -2.5
v -4.4 -2.5 -3.8
v -4.1 -2.5 -2.7
v -4.1 -2.5 -3.6
v -4.1 -2.4 -2.7
v -4.1 -2.4 -3.6
v -3.4 -2.9 0.9
v -3.4 -2.9 0.3
v -3.4 -2.9 -0.2
v -3.4 -2.9 -1
v -3.4 -2.8 0.9
v -3.4 -2.8 0.5
v -3.4 -2.8 0.3
v -3.4 -2.8 -0.2
v -3.4 -2.8 -1
v -3.4 -2.7 0.9
v -3.4 -2.7 0.5
v -3.2 -2.8 -0.3
v -3.2 -2.8 -0.8
v -3.2 -2.7 -0.3
v -3.2 -2.7 -0.8
v -2.9 -2.9 2.6
v -2.9 -2.9 1.6
v -2.9 -2.8 2.6
v -2.9 -2.8 1.6
v -2.5 -2.8 2.4
v -2.5 -2.8 1.9
v -2.5 -2.7 2.4
v -2.5 -2.7 1.9
v -1 -2.9 -3.5
v -1 -2.9 -4.9
v -1 -2.8 -3.5
v -1 -2.8 -4.9
v -0.6 -2.8 -3.9
v -0.6 -2.8 -4.7
v -0.6 -2.7 -3.9
v -0.6 -2.7 -4.7
v -0.3 -2.9 -0.3
v -0.3 -2.9 -0.9
v -0.3 -2.8 -0.3
v -0.3 -2.8 -0.9
v -0.3 -2.7 -4.2
v -0.3 -2.7 -4.5
v -0.3 -2.6 -4.2
v -0.3 -2.6 -4.5
v -0.2 -2.9 -1.5
v -0.2 -2.9 -2.3
v -0.2 -2.8 -1.5
v -0.2 -2.8 -2.3
v 0 -2.8 -1.7
v 0 -2.8 -2.1
v 0 -2.7 -2
v 0 -2.7 -2.1
v 0 -2.6 -1.7
v 0 -2.6 -2
v 0.4 -2.8 -0.4
v 0.4 -2.8 -0.7
v 0.4 -2.7 -0.4
v 0.4 -2.7 -0.7
v 2.2 -2.9 -3.6
v 2.2 -2.9 -4.3
v 2.2 -2.8 -3.6
v 2.2 -2.8 -4.3
v 2.6 -2.8 -4.1
v 2.6 -2.8 -4.3
v 2.6 -2.8 -5
v 2.6 -2.7 -4.1
v 2.6 -2.7 -5
v 2.9 -2.9 -4.3
v 2.9 -2.9 -5.2
v 2.9 -2.8 -4.3
v 2.9 -2.8 -5
v 2.9 -2.8 -5.2
v 3.8 -2.9 4.5
v 3.8 -2.9 2.6
v 3.8 -2.9 1.6
v 3.8 -2.9 0.3
v 3.8 -2.9 -2.3
v 3.8 -2.9 -3.6
v 3.8 -2.8 4.5
v 3.8 -2.8 2.6
v 3.8 -2.8 1.6
v 3.8 -2.8 0.3
v 3.8 -2.8 -2.3
v 3.8 -2.8 -3.6
v 3.9 -2.8 4.4
v 3.9 -2.8 2.7
v 3.9 -2.8 1.6
v 3.9 -2.8 0.5
v 3.9 -2.7 4.4
v 3.9 -2.7 2.7
v 3.9 -2.7 1.6
v 3.9 -2.7 0.5
v -4.1 -2.9 4.5
v -4.1 -2.9 3.7
v -4.1 -2.9 3.1
v -4.1 -2.9 1.2
v -4.1 -2.9 -1.3
v -4.1 -2.9 -2.2
v -4.1 -2.8 4.5
v -4.1 -2.8 3.7
v -4.1 -2.8 3.1
v -4.1 -2.8 1.2
v -4.1 -2.8 -1.3
v -4.1 -2.8 -2.2
v -3.5 -2.5 -2.7
v -3.5 -2.5 -3.6
v -3.5 -2.4 -2.7
v -3.5 -2.4 -3.6
v -3.1 -2.9 -4.2
v -3.1 -2.9 -5.1
v -3.1 -2.8 -4.2
v -3.1 -2.8 -5.1
v -2.2 -2.6 -2.5
v -2.2 -2.6 -3.8
v -2.2 -2.5 -2.5
v -2.2 -2.5 -3.8
v -2.1 -2.7 -2.5
v -2.1 -2.7 -3.8
v -2.1 -2.6 -2.5
v -2.1 -2.6 -3.8
v -2 -2.8 -2.4
v -2 -2.8 -3.9
v -2 -2.7 -2.4
v -2 -2.7 -3.9
v -1.9 -2.9 -2.2
v -1.9 -2.9 -4.2
v -1.9 -2.8 -2.2
v -1.9 -2.8 -4.2
v -1.5 -2.8 -0.3
v -1.5 -2.8 -0.8
v -1.5 -2.7 -0.3
v -1.5 -2.7 -0.8
v -1.3 -2.9 -0.2
v -1.3 -2.9 -1
v -1.3 -2.8 -0.2
v -1.3 -2.8 -1
v 0.2 -2.7 -4.2
v 0.2 -2.7 -4.5
v 0.2 -2.6 -4.2
v 0.2 -2.6 -4.5
v 0.4 -2.7 -1.7
v 0.4 -2.7 -2
v 0.4 -2.6 -1.7
v 0.4 -2.6 -2
v 0.5 -2.8 -3.9
v 0.5 -2.8 -4.7
v 0.5 -2.7 -3.9
v 0.5 -2.7 -4.7
v 0.8 -2.8 0.9
v 0.8 -2.8 0.5
v 0.8 -2.7 0.9
v 0.8 -2.7 0.5
v 1.1 -2.9 -3.5
v 1.1 -2.9 -4.9
v 1.1 -2.8 -3.5
v 1.1 -2.8 -4.9
v 1.2 -2.9 1.2
v 1.2 -2.9 0.3
v 1.2 -2.8 1.2
v 1.2 -2.8 0.3
v 2.2 -2.8 -0.4
v 2.2 -2.8 -0.7
v 2.2 -2.7 -0.4
v 2.2 -2.7 -0.7
v 2.4 -2.8 -1.7
v 2.4 -2.8 -2.1
v 2.4 -2.7 -1.7
v 2.4 -2.7 -2.1
v 2.5 -2.9 3.7
v 2.5 -2.9 3.1
v 2.5 -2.8 3.7
v 2.5 -2.8 3.1
v 2.9 -2.9 -0.3
v 2.9 -2.9 -0.9
v 2.9 -2.9 -1.5
v 2.9 -2.9 -1.9
v 2.9 -2.8 -0.3
v 2.9 -2.8 -0.9
v 2.9 -2.8 -1.5
v 2.9 -2.8 -1.9
v 4.2 -2.8 -4.1
v 4.2 -2.8 -5
v 4.2 -2.7 -4.1
v 4.2 -2.7 -5
v 4.8 -2.8 4.4
v 4.8 -2.8 2.7
v 4.8 -2.8 1.6
v 4.8 -2.8 0.5
v 4.8 -2.7 4.4
v 4.8 -2.7 2.7
v 4.8 -2.7 1.6
v 4.8 -2.7 0.5
v 4.9 -2.9 4.5
v 4.9 -2.9 0.3
v 4.9 -2.9 -1.9
v 4.9 -2.9 -5.2
v 4.9 -2.8 4.5
v 4.9 -2.8 2.4
v 4.9 -2.8 1.9
v 4.9 -2.8 0.3
v 4.9 -2.8 -1.9
v 4.9 -2.8 -5.2
v 4.9 -2.7 2.4
v 4.9 -2.7 1.9
v 5 -3 4.6
v 5 -3 -5.4
v 5 -2.9 4.6
v 5 -2.9 -5.4
v -5 -3 4.6
v -5 -2.9 4.6
v 5 -3 4.6
v 5 -2.9 4.6
v -4.8 -2.9 4.5
v -4.8 -2.8 4.5
v -4.1 -2.9 4.5
v -4.1 -2.8 4.5
v 3.8 -2.9 4.5
v 3.8 -2.8 4.5
v 4.9 -2.9 4.5
v 4.9 -2.8 4.5
v 3.9 -2.8 4.4
v 3.9 -2.7 4.4
v 4.8 -2.8 4.4
v 4.8 -2.7 4.4
v -4.1 -2.9 3.7
v -4.1 -2.8 3.7
v 2.5 -2.9 3.7
v 2.5 -2.8 3.7
v -2.9 -2.9 2.6
v -2.9 -2.8 2.6
v 3.8 -2.9 2.6
v 3.8 -2.8 2.6
v -2.5 -2.8 2.4
v -2.5 -2.7 2.4
v 4.9 -2.8 2.4
v 4.9 -2.7 2.4
v 3.9 -2.8 1.6
v 3.9 -2.7 1.6
v 4.8 -2.8 1.6
v 4.8 -2.7 1.6
v -4.1 -2.9 1.2
v -4.1 -2.8 1.2
v 1.2 -2.9 1.2
v 1.2 -2.8 1.2
v -3.4 -2.8 0.9
v -3.4 -2.7 0.9
v 0.8 -2.8 0.9
v 0.8 -2.7 0.9
v -3.4 -2.9 -0.2
v -3.4 -2.8 -0.2
v -1.3 -2.9 -0.2
v -1.3 -2.8 -0.2
v -3.2 -2.8 -0.3
v -3.2 -2.7 -0.3
v -1.5 -2.8 -0.3
v -1.5 -2.7 -0.3
v -0.3 -2.9 -0.3
v -0.3 -2.8 -0.3
v 2.9 -2.9 -0.3
v 2.9 -2.8 -0.3
v 0.4 -2.8 -0.4
v 0.4 -2.7 -0.4
v 2.2 -2.8 -0.4
v 2.2 -2.7 -0.4
v -4.8 -2.9 -1.3
v -4.8 -2.8 -1.3
v -4.1 -2.9 -1.3
v -4.1 -2.8 -1.3
v -0.2 -2.9 -1.5
v -0.2 -2.8 -1.5
v 2.9 -2.9 -1.5
v 2.9 -2.8 -1.5
v 0 -2.8 -1.7
v 0 -2.6 -1.7
v 0.4 -2.7 -1.7
v 0.4 -2.6 -1.7
v 2.4 -2.8 -1.7
v 2.4 -2.7 -1.7
v 2.9 -2.9 -1.9
v 2.9 -2.8 -1.9
v 4.9 -2.9 -1.9
v 4.9 -2.8 -1.9
v -4.1 -2.9 -2.2
v -4.1 -2.8 -2.2
v -1.9 -2.9 -2.2
v -1.9 -2.8 -2.2
v -4.6 -2.8 -2.4
v -4.6 -2.7 -2.4
v -2 -2.8 -2.4
v -2 -2.7 -2.4
v -4.5 -2.7 -2.5
v -4.5 -2.6 -2.5
v -4.4 -2.6 -2.5
v -4.4 -2.5 -2.5
v -2.2 -2.6 -2.5
v -2.2 -2.5 -2.5
v -2.1 -2.7 -2.5
v -2.1 -2.6 -2.5
v -4.1 -2.5 -2.7
v -4.1 -2.4 -2.7
v -3.5 -2.5 -2.7
v -3.5 -2.4 -2.7
v -1 -2.9 -3.5
v -1 -2.8 -3.5
v 1.1 -2.9 -3.5
v 1.1 -2.8 -3.5
v 2.2 -2.9 -3.6
v 2.2 -2.8 -3.6
v 3.8 -2.9 -3.6
v 3.8 -2.8 -3.6
v -0.6 -2.8 -3.9
v -0.6 -2.7 -3.9
v 0.5 -2.8 -3.9
v 0.5 -2.7 -3.9
v 2.6 -2.8 -4.1
v 2.6 -2.7 -4.1
v 4.2 -2.8 -4.1
v 4.2 -2.7 -4.1
v -0.3 -2.7 -4.2
v -0.3 -2.6 -4.2
v 0.2 -2.7 -4.2
v 0.2 -2.6 -4.2
v -4.1 -2.9 3.1
v -4.1 -2.8 3.1
v 2.5 -2.9 3.1
v 2.5 -2.8 3.1
v 3.9 -2.8 2.7
v 3.9 -2.7 2.7
v 4.8 -2.8 2.7
v 4.8 -2.7 2.7
v -2.5 -2.8 1.9
v -2.5 -2.7 1.9
v 4.9 -2.8 1.9
v 4.9 -2.7 1.9
v -2.9 -2.9 1.6
v -2.9 -2.8 1.6
v 3.8 -2.9 1.6
v 3.8 -2.8 1.6
v -4.8 -2.9 0.9
v -4.8 -2.8 0.9
v -3.4 -2.9 0.9
v -3.4 -2.8 0.9
v -3.4 -2.8 0.5
v -3.4 -2.7 0.5
v 0.8 -2.8 0.5
v 0.8 -2.7 0.5
v 3.9 -2.8 0.5
v 3.9 -2.7 0.5
v 4.8 -2.8 0.5
v 4.8 -2.7 0.5
v -3.4 -2.9 0.3
v -3.4 -2.8 0.3
v 1.2 -2.9 0.3
v 1.2 -2.8 0.3
v 3.8 -2.9 0.3
v 3.8 -2.8 0.3
v 4.9 -2.9 0.3
v 4.9 -2.8 0.3
v 0.4 -2.8 -0.7
v 0.4 -2.7 -0.7
v 2.2 -2.8 -0.7
v 2.2 -2.7 -0.7
v -3.2 -2.8 -0.8
v -3.2 -2.7 -0.8
v -1.5 -2.8 -0.8
v -1.5 -2.7 -0.8
v -0.3 -2.9 -0.9
v -0.3 -2.8 -0.9
v 2.9 -2.9 -0.9
v 2.9 -2.8 -0.9
v -3.4 -2.9 -1
v -3.4 -2.8 -1
v -1.3 -2.9 -1
v -1.3 -2.8 -1
v 0 -2.7 -2
v 0 -2.6 -2
v 0.4 -2.7 -2
v 0.4 -2.6 -2
v 0 -2.8 -2.1
v 0 -2.7 -2.1
v 2.4 -2.8 -2.1
v 2.4 -2.7 -2.1
v -0.2 -2.9 -2.3
v -0.2 -2.8 -2.3
v 3.8 -2.9 -2.3
v 3.8 -2.8 -2.3
v -4.1 -2.5 -3.6
v -4.1 -2.4 -3.6
v -3.5 -2.5 -3.6
v -3.5 -2.4 -3.6
v -4.5 -2.7 -3.8
v -4.5 -2.6 -3.8
v -4.4 -2.6 -3.8
v -4.4 -2.5 -3.8
v -2.2 -2.6 -3.8
v -2.2 -2.5 -3.8
v -2.1 -2.7 -3.8
v -2.1 -2.6 -3.8
v -4.6 -2.8 -3.9
v -4.6 -2.7 -3.9
v -2 -2.8 -3.9
v -2 -2.7 -3.9
v -3.1 -2.9 -4.2
v -3.1 -2.8 -4.2
v -1.9 -2.9 -4.2
v -1.9 -2.8 -4.2
v 2.2 -2.9 -4.3
v 2.2 -2.8 -4.3
v 2.6 -2.8 -4.3
v 2.9 -2.9 -4.3
v 2.9 -2.8 -4.3
v -0.3 -2.7 -4.5
v -0.3 -2.6 -4.5
v 0.2 -2.7 -4.5
v 0.2 -2.6 -4.5
v -0.6 -2.8 -4.7
v -0.6 -2.7 -4.7
v 0.5 -2.8 -4.7
v 0.5 -2.7 -4.7
v -1 -2.9 -4.9
v -1 -2.8 -4.9
v 1.1 -2.9 -4.9
v 1.1 -2.8 -4.9
v 2.6 -2.8 -5
v 2.6 -2.7 -5
v 2.9 -2.8 -5
v 4.2 -2.8 -5
v 4.2 -2.7 -5
v -4.8 -2.9 -5.1
v -4.8 -2.8 -5.1
v -3.1 -2.9 -5.1
v -3.1 -2.8 -5.1
v 2.9 -2.9 -5.2
v 2.9 -2.8 -5.2
v 4.9 -2.9 -5.2
v 4.9 -2.8 -5.2
v -5 -3 -5.4
v -5 -2.9 -5.4
v 5 -3 -5.4
v 5 -2.9 -5.4
v -5 -3 4.6
v 5 -3 4.6
v -5 -3 -5.4
v 5 -3 -5.4
v 2.6 -2.8 -4.3
v 2.9 -2.8 -4.3
v 2.6 -2.8 -5
v 2.9 -2.8 -5
v -5 -2.9 4.6
v 5 -2.9 4.6
v -4.8 -2.9 4.5
v -4.1 -2.9 4.5
v 3.8 -2.9 4.5
v 4.9 -2.9 4.5
v -4.1 -2.9 3.7
v 2.5 -2.9 3.7
v -4.1 -2.9 3.1
v 2.5 -2.9 3.1
v -2.9 -2.9 2.6
v 3.8 -2.9 2.6
v -2.9 -2.9 1.6
v 3.8 -2.9 1.6
v -4.1 -2.9 1.2
v 1.2 -2.9 1.2
v -4.8 -2.9 0.9
v -3.4 -2.9 0.9
v -3.4 -2.9 0.3
v 1.2 -2.9 0.3
v 3.8 -2.9 0.3
v 4.9 -2.9 0.3
v -3.4 -2.9 -0.2
v -1.3 -2.9 -0.2
v -0.3 -2.9 -0.3
v 2.9 -2.9 -0.3
v -0.3 -2.9 -0.9
v 2.9 -2.9 -0.9
v -3.4 -2.9 -1
v -1.3 -2.9 -1
v -4.8 -2.9 -1.3
v -4.1 -2.9 -1.3
v -0.2 -2.9 -1.5
v 2.9 -2.9 -1.5
v 2.9 -2.9 -1.9
v 4.9 -2.9 -1.9
v -4.1 -2.9 -2.2
v -1.9 -2.9 -2.2
v -0.2 -2.9 -2.3
v 3.8 -2.9 -2.3
v -1 -2.9 -3.5
v 1.1 -2.9 -3.5
v 2.2 -2.9 -3.6
v 3.8 -2.9 -3.6
v -3.1 -2.9 -4.2
v -1.9 -2.9 -4.2
v 2.2 -2.9 -4.3
v 2.9 -2.9 -4.3
v -1 -2.9 -4.9
v 1.1 -2.9 -4.9
v -4.8 -2.9 -5.1
v -3.1 -2.9 -5.1
v 2.9 -2.9 -5.2
v 4.9 -2.9 -5.2
v -5 -2.9 -5.4
v 5 -2.9 -5.4
v -4.8 -2.8 4.5
v -4.1 -2.8 4.5
v 3.8 -2.8 4.5
v 4.9 -2.8 4.5
v 3.9 -2.8 4.4
v 4.8 -2.8 4.4
v -4.1 -2.8 3.7
v 2.5 -2.8 3.7
v -4.1 -2.8 3.1
v 2.5 -2.8 3.1
v 3.9 -2.8 2.7
v 4.8 -2.8 2.7
v -2.9 -2.8 2.6
v 3.8 -2.8 2.6
v -2.5 -2.8 2.4
v 4.9 -2.8 2.4
v -2.5 -2.8 1.9
v 4.9 -2.8 1.9
v -2.9 -2.8 1.6
v 3.8 -2.8 1.6
v 3.9 -2.8 1.6
v 4.8 -2.8 1.6
v -4.1 -2.8 1.2
v 1.2 -2.8 1.2
v -4.8 -2.8 0.9
v -3.4 -2.8 0.9
v 0.8 -2.8 0.9
v -3.4 -2.8 0.5
v 0.8 -2.8 0.5
v 3.9 -2.8 0.5
v 4.8 -2.8 0.5
v -3.4 -2.8 0.3
v 1.2 -2.8 0.3
v 3.8 -2.8 0.3
v 4.9 -2.8 0.3
v -3.4 -2.8 -0.2
v -1.3 -2.8 -0.2
v -3.2 -2.8 -0.3
v -1.5 -2.8 -0.3
v -0.3 -2.8 -0.3
v 2.9 -2.8 -0.3
v 0.4 -2.8 -0.4
v 2.2 -2.8 -0.4
v 0.4 -2.8 -0.7
v 2.2 -2.8 -0.7
v -3.2 -2.8 -0.8
v -1.5 -2.8 -0.8
v -0.3 -2.8 -0.9
v 2.9 -2.8 -0.9
v -3.4 -2.8 -1
v -1.3 -2.8 -1
v -4.8 -2.8 -1.3
v -4.1 -2.8 -1.3
v -0.2 -2.8 -1.5
v 2.9 -2.8 -1.5
v 0 -2.8 -1.7
v 2.4 -2.8 -1.7
v 2.9 -2.8 -1.9
v 4.9 -2.8 -1.9
v 0 -2.8 -2.1
v 2.4 -2.8 -2.1
v -4.1 -2.8 -2.2
v -1.9 -2.8 -2.2
v -0.2 -2.8 -2.3
v 3.8 -2.8 -2.3
v -4.6 -2.8 -2.4
v -2 -2.8 -2.4
v -1 -2.8 -3.5
v 1.1 -2.8 -3.5
v 2.2 -2.8 -3.6
v 3.8 -2.8 -3.6
v -4.6 -2.8 -3.9
v -2 -2.8 -3.9
v -0.6 -2.8 -3.9
v 0.5 -2.8 -3.9
v 2.6 -2.8 -4.1
v 4.2 -2.8 -4.1
v -3.1 -2.8 -4.2
v -1.9 -2.8 -4.2
v 2.2 -2.8 -4.3
v 2.6 -2.8 -4.3
v -0.6 -2.8 -4.7
v 0.5 -2.8 -4.7
v -1 -2.8 -4.9
v 1.1 -2.8 -4.9
v 2.9 -2.8 -5
v 4.2 -2.8 -5
v -4.8 -2.8 -5.1
v -3.1 -2.8 -5.1
v 2.9 -2.8 -5.2
v 4.9 -2.8 -5.2
v 3.9 -2.7 4.4
v 4.8 -2.7 4.4
v 3.9 -2.7 2.7
v 4.8 -2.7 2.7
v -2.5 -2.7 2.4
v 4.9 -2.7 2.4
v -2.5 -2.7 1.9
v 4.9 -2.7 1.9
v 3.9 -2.7 1.6
v 4.8 -2.7 1.6
v -3.4 -2.7 0.9
v 0.8 -2.7 0.9
v -3.4 -2.7 0.5
v 0.8 -2.7 0.5
v 3.9 -2.7 0.5
v 4.8 -2.7 0.5
v -3.2 -2.7 -0.3
v -1.5 -2.7 -0.3
v 0.4 -2.7 -0.4
v 2.2 -2.7 -0.4
v 0.4 -2.7 -0.7
v 2.2 -2.7 -0.7
v -3.2 -2.7 -0.8
v -1.5 -2.7 -0.8
v 0.4 -2.7 -1.7
v 2.4 -2.7 -1.7
v 0 -2.7 -2
v 0.4 -2.7 -2
v 0 -2.7 -2.1
v 2.4 -2.7 -2.1
v -4.6 -2.7 -2.4
v -2 -2.7 -2.4
v -4.5 -2.7 -2.5
v -2.1 -2.7 -2.5
v -4.5 -2.7 -3.8
v -2.1 -2.7 -3.8
v -4.6 -2.7 -3.9
v -2 -2.7 -3.9
v -0.6 -2.7 -3.9
v 0.5 -2.7 -3.9
v 2.6 -2.7 -4.1
v 4.2 -2.7 -4.1
v -0.3 -2.7 -4.2
v 0.2 -2.7 -4.2
v -0.3 -2.7 -4.5
v 0.2 -2.7 -4.5
v -0.6 -2.7 -4.7
v 0.5 -2.7 -4.7
v 2.6 -2.7 -5
v 4.2 -2.7 -5
v 0 -2.6 -1.7
v 0.4 -2.6 -1.7
v 0 -2.6 -2
v 0.4 -2.6 -2
v -4.5 -2.6 -2.5
v -4.4 -2.6 -2.5
v -2.2 -2.6 -2.5
v -2.1 -2.6 -2.5
v -4.5 -2.6 -3.8
v -4.4 -2.6 -3.8
v -2.2 -2.6 -3.8
v -2.1 -2.6 -3.8
v -0.3 -2.6 -4.2
v 0.2 -2.6 -4.2
v -0.3 -2.6 -4.5
v 0.2 -2.6 -4.5
v -4.4 -2.5 -2.5
v -2.2 -2.5 -2.5
v -4.1 -2.5 -2.7
v -3.5 -2.5 -2.7
v -4.1 -2.5 -3.6
v -3.5 -2.5 -3.6
v -4.4 -2.5 -3.8
v -2.2 -2.5 -3.8
v -4.1 -2.4 -2.7
v -3.5 -2.4 -2.7
v -4.1 -2.4 -3.6
v -3.5 -2.4 -3.6

# faces
f 3/3/1 2/3/1 1/3/1
f 4/3/1 2/3/1 3/3/1
f 9/1/1 6/1/1 5/1/1
f 10/1/1 6/1/1 9/1/1
f 11/1/1 8/1/1 7/1/1
f 12/1/1 8/1/1 11/1/1
f 15/2/1 14/2/1 13/2/1
f 16/2/1 14/2/1 15/2/1
f 19/2/1 18/2/1 17/2/1
f 20/2/1 18/2/1 19/2/1
f 23/2/1 22/2/1 21/2/1
f 24/2/1 22/2/1 23/2/1
f 27/2/1 26/2/1 25/2/1
f 28/2/1 26/2/1 27/2/1
f 33/1/1 30/1/1 29/1/1
f 34/1/1 30/1/1 33/1/1
f 35/1/1 30/1/1 34/1/1
f 36/1/1 32/1/1 31/1/1
f 37/1/1 32/1/1 36/1/1
f 38/1/1 34/1/1 33/1/1
f 39/1/1 34/1/1 38/1/1
f 42/2/1 41/2/1 40/2/1
f 43/2/1 41/2/1 42/2/1
f 46/1/1 45/1/1 44/1/1
f 47/1/1 45/1/1 46/1/1
f 50/1/1 49/1/1 48/1/1
f 51/1/1 49/1/1 50/1/1
f 54/1/1 53/1/1 52/1/1
f 55/1/1 53/1/1 54/1/1
f 58/1/1 57/1/1 56/1/1
f 59/1/1 57/1/1 58/1/1
f 62/1/1 61/1/1 60/1/1
f 63/1/1 61/1/1 62/1/1
f 66/1/1 65/1/1 64/1/1
f 67/1/1 65/1/1 66/1/1
f 70/1/1 69/1/1 68/1/1
f 71/1/1 69/1/1 70/1/1
f 74/2/1 73/2/1 72/2/1
f 75/2/1 73/2/1 74/2/1
f 76/2/1 74/2/1 72/2/1
f 77/2/1 74/2/1 76/2/1
f 80/2/1 79/2/1 78/2/1
f 81/2/1 79/2/1 80/2/1
f 84/1/1 83/1/1 82/1/1
f 85/1/1 83/1/1 84/1/1
f 89/1/1 87/1/1 86/1/1
f 89/1/1 88/1/1 87/1/1
f 90/1/1 88/1/1 89/1/1
f 93/1/1 92/1/1 91/1/1
f 94/1/1 92/1/1 93/1/1
f 95/1/1 92/1/1 94/1/1
f 102/1/1 97/1/1 96/1/1
f 103/1/1 97/1/1 102/1/1
f 104/1/1 99/1/1 98/1/1
f 105/1/1 99/1/1 104/1/1
f 106/1/1 101/1/1 100/1/1
f 107/1/1 101/1/1 106/1/1
f 112/2/1 109/2/1 108/2/1
f 113/2/1 109/2/1 112/2/1
f 114/2/1 111/2/1 110/2/1
f 115/2/1 111/2/1 114/2/1
f 116/1/2 117/1/2 122/1/2
f 122/1/2 117/1/2 123/1/2
f 118/1/2 119/1/2 124/1/2
f 124/1/2 119/1/2 125/1/2
f 120/1/2 121/1/2 126/1/2
f 126/1/2 121/1/2 127/1/2
f 128/2/2 129/2/2 130/2/2
f 130/2/2 129/2/2 131/2/2
f 132/1/2 133/1/2 134/1/2
f 134/1/2 133/1/2 135/1/2
f 136/2/2 137/2/2 138/2/2
f 138/2/2 137/2/2 139/2/2
f 140/2/2 141/2/2 142/2/2
f 142/2/2 141/2/2 143/2/2
f 144/2/2 145/2/2 146/2/2
f 146/2/2 145/2/2 147/2/2
f 148/1/2 149/1/2 150/1/2
f 150/1/2 149/1/2 151/1/2
f 152/2/2 153/2/2 154/2/2
f 154/2/2 153/2/2 155/2/2
f 156/1/2 157/1/2 158/1/2
f 158/1/2 157/1/2 159/1/2
f 160/1/2 161/1/2 162/1/2
f 162/1/2 161/1/2 163/1/2
f 164/2/2 165/2/2 166/2/2
f 166/2/2 165/2/2 167/2/2
f 168/1/2 169/1/2 170/1/2
f 170/1/2 169/1/2 171/1/2
f 172/1/2 173/1/2 174/1/2
f 174/1/2 173/1/2 175/1/2
f 176/1/2 177/1/2 178/1/2
f 178/1/2 177/1/2 179/1/2
f 180/1/2 181/1/2 182/1/2
f 182/1/2 181/1/2 183/1/2
f 184/2/2 185/2/2 186/2/2
f 186/2/2 185/2/2 187/2/2
f 188/2/2 189/2/2 190/2/2
f 190/2/2 189/2/2 191/2/2
f 192/1/2 193/1/2 194/1/2
f 194/1/2 193/1/2 195/1/2
f 196/1/2 197/1/2 200/1/2
f 200/1/2 197/1/2 201/1/2
f 198/1/2 199/1/2 202/1/2
f 202/1/2 199/1/2 203/1/2
f 204/1/2 205/1/2 206/1/2
f 206/1/2 205/1/2 207/1/2
f 208/2/2 209/2/2 212/2/2
f 212/2/2 209/2/2 213/2/2
f 210/2/2 211/2/2 214/2/2
f 214/2/2 211/2/2 215/2/2
f 216/1/2 217/1/2 220/1/2
f 220/1/2 217/1/2 221/1/2
f 221/1/2 217/1/2 222/1/2
f 222/1/2 217/1/2 223/1/2
f 218/1/2 219/1/2 224/1/2
f 224/1/2 219/1/2 225/1/2
f 221/1/2 222/1/2 226/1/2
f 226/1/2 222/1/2 227/1/2
f 228/3/2 229/3/2 230/3/2
f 230/3/2 229/3/2 231/3/2
f 234/3/3 233/3/3 232/3/3
f 235/3/3 233/3/3 234/3/3
f 238/1/3 237/1/3 236/1/3
f 239/1/3 237/1/3 238/1/3
f 242/1/3 241/1/3 240/1/3
f 243/1/3 241/1/3 242/1/3
f 246/2/3 245/2/3 244/2/3
f 247/2/3 245/2/3 246/2/3
f 250/1/3 249/1/3 248/1/3
f 251/1/3 249/1/3 250/1/3
f 254/1/3 253/1/3 252/1/3
f 255/1/3 253/1/3 254/1/3
f 258/1/3 257/1/3 256/1/3
f 259/1/3 257/1/3 258/1/3
f 262/2/3 261/2/3 260/2/3
f 263/2/3 261/2/3 262/2/3
f 266/1/3 265/1/3 264/1/3
f 267/1/3 265/1/3 266/1/3
f 270/1/3 269/1/3 268/1/3
f 271/1/3 269/1/3 270/1/3
f 274/1/3 273/1/3 272/1/3
f 275/1/3 273/1/3 274/1/3
f 278/2/3 277/2/3 276/2/3
f 279/2/3 277/2/3 278/2/3
f 282/1/3 281/1/3 280/1/3
f 283/1/3 281/1/3 282/1/3
f 286/2/3 285/2/3 284/2/3
f 287/2/3 285/2/3 286/2/3
f 290/1/3 289/1/3 288/1/3
f 291/1/3 289/1/3 290/1/3
f 294/1/3 293/1/3 292/1/3
f 295/1/3 293/1/3 294/1/3
f 298/2/3 297/2/3 296/2/3
f 299/2/3 297/2/3 298/2/3
f 300/2/3 298/2/3 296/2/3
f 301/2/3 298/2/3 300/2/3
f 304/1/3 303/1/3 302/1/3
f 305/1/3 303/1/3 304/1/3
f 308/1/3 307/1/3 306/1/3
f 309/1/3 307/1/3 308/1/3
f 312/2/3 311/2/3 310/2/3
f 313/2/3 311/2/3 312/2/3
f 316/2/3 315/2/3 314/2/3
f 318/2/3 316/2/3 314/2/3
f 318/2/3 317/2/3 316/2/3
f 319/2/3 317/2/3 318/2/3
f 320/2/3 318/2/3 314/2/3
f 321/2/3 318/2/3 320/2/3
f 324/2/3 323/2/3 322/2/3
f 325/2/3 323/2/3 324/2/3
f 328/1/3 327/1/3 326/1/3
f 329/1/3 327/1/3 328/1/3
f 332/1/3 331/1/3 330/1/3
f 333/1/3 331/1/3 332/1/3
f 336/1/3 335/1/3 334/1/3
f 337/1/3 335/1/3 336/1/3
f 340/1/3 339/1/3 338/1/3
f 341/1/3 339/1/3 340/1/3
f 344/1/3 343/1/3 342/1/3
f 345/1/3 343/1/3 344/1/3
f 346/1/4 347/1/4 348/1/4
f 348/1/4 347/1/4 349/1/4
f 350/2/4 351/2/4 352/2/4
f 352/2/4 351/2/4 353/2/4
f 354/1/4 355/1/4 356/1/4
f 356/1/4 355/1/4 357/1/4
f 358/1/4 359/1/4 360/1/4
f 360/1/4 359/1/4 361/1/4
f 362/1/4 363/1/4 364/1/4
f 364/1/4 363/1/4 365/1/4
f 366/1/4 367/1/4 368/1/4
f 368/1/4 367/1/4 369/1/4
f 370/2/4 371/2/4 372/2/4
f 372/2/4 371/2/4 373/2/4
f 374/1/4 375/1/4 376/1/4
f 376/1/4 375/1/4 377/1/4
f 378/1/4 379/1/4 380/1/4
f 380/1/4 379/1/4 381/1/4
f 382/2/4 383/2/4 384/2/4
f 384/2/4 383/2/4 385/2/4
f 386/2/4 387/2/4 388/2/4
f 388/2/4 387/2/4 389/2/4
f 390/1/4 391/1/4 392/1/4
f 392/1/4 391/1/4 393/1/4
f 394/1/4 395/1/4 396/1/4
f 396/1/4 395/1/4 397/1/4
f 398/2/4 399/2/4 400/2/4
f 400/2/4 399/2/4 401/2/4
f 402/2/4 403/2/4 404/2/4
f 404/2/4 403/2/4 405/2/4
f 406/1/4 407/1/4 408/1/4
f 408/1/4 407/1/4 409/1/4
f 410/2/4 411/2/4 412/2/4
f 412/2/4 411/2/4 413/2/4
f 414/2/4 415/2/4 416/2/4
f 414/2/4 416/2/4 418/2/4
f 416/2/4 417/2/4 418/2/4
f 418/2/4 417/2/4 419/2/4
f 414/2/4 418/2/4 420/2/4
f 420/2/4 418/2/4 421/2/4
f 422/2/4 423/2/4 424/2/4
f 424/2/4 423/2/4 425/2/4
f 426/1/4 427/1/4 428/1/4
f 428/1/4 427/1/4 429/1/4
f 430/1/4 431/1/4 432/1/4
f 430/1/4 432/1/4 433/1/4
f 433/1/4 432/1/4 434/1/4
f 435/1/4 436/1/4 437/1/4
f 437/1/4 436/1/4 438/1/4
f 439/1/4 440/1/4 441/1/4
f 441/1/4 440/1/4 442/1/4
f 443/1/4 444/1/4 445/1/4
f 445/1/4 444/1/4 446/1/4
f 447/1/4 448/1/4 449/1/4
f 449/1/4 448/1/4 450/1/4
f 450/1/4 448/1/4 451/1/4
f 452/1/4 453/1/4 454/1/4
f 454/1/4 453/1/4 455/1/4
f 456/1/4 457/1/4 458/1/4
f 458/1/4 457/1/4 459/1/4
f 460/3/4 461/3/4 462/3/4
f 462/3/4 461/3/4 463/3/4
f 466/3/5 465/3/5 464/3/5
f 467/3/5 465/3/5 466/3/5
f 470/1/5 469/1/5 468/1/5
f 471/1/5 469/1/5 470/1/5
f 472/3/6 473/3/6 474/3/6
f 474/3/6 473/3/6 475/3/6
f 475/3/6 473/3/6 476/3/6
f 476/3/6 473/3/6 477/3/6
f 475/3/6 476/3/6 478/3/6
f 478/3/6 476/3/6 479/3/6
f 479/3/6 476/3/6 481/3/6
f 480/3/6 481/3/6 482/3/6
f 481/3/6 476/3/6 483/3/6
f 482/3/6 481/3/6 483/3/6
f 480/3/6 482/3/6 484/3/6
f 480/3/6 484/3/6 486/3/6
f 484/3/6 485/3/6 486/3/6
f 486/3/6 485/3/6 487/3/6
f 472/3/6 474/3/6 488/3/6
f 488/3/6 489/3/6 490/3/6
f 487/3/6 485/3/6 491/3/6
f 491/3/6 485/3/6 492/3/6
f 477/3/6 473/3/6 493/3/6
f 488/3/6 490/3/6 494/3/6
f 492/3/6 493/3/6 494/3/6
f 491/3/6 492/3/6 494/3/6
f 490/3/6 491/3/6 494/3/6
f 494/3/6 493/3/6 495/3/6
f 495/3/6 493/3/6 496/3/6
f 496/3/6 493/3/6 497/3/6
f 495/3/6 496/3/6 498/3/6
f 497/3/6 493/3/6 499/3/6
f 488/3/6 494/3/6 500/3/6
f 498/3/6 499/3/6 501/3/6
f 495/3/6 498/3/6 501/3/6
f 472/3/6 488/3/6 502/3/6
f 500/3/6 501/3/6 502/3/6
f 488/3/6 500/3/6 502/3/6
f 502/3/6 501/3/6 503/3/6
f 501/3/6 499/3/6 504/3/6
f 503/3/6 501/3/6 504/3/6
f 499/3/6 493/3/6 505/3/6
f 504/3/6 499/3/6 505/3/6
f 505/3/6 493/3/6 506/3/6
f 493/3/6 473/3/6 507/3/6
f 506/3/6 493/3/6 507/3/6
f 503/3/6 504/3/6 508/3/6
f 508/3/6 504/3/6 509/3/6
f 509/3/6 504/3/6 510/3/6
f 509/3/6 510/3/6 512/3/6
f 510/3/6 511/3/6 512/3/6
f 512/3/6 511/3/6 513/3/6
f 513/3/6 511/3/6 514/3/6
f 514/3/6 511/3/6 515/3/6
f 509/3/6 512/3/6 517/3/6
f 513/3/6 514/3/6 518/3/6
f 516/3/6 517/3/6 520/3/6
f 517/3/6 512/3/6 520/3/6
f 518/3/6 519/3/6 521/3/6
f 513/3/6 518/3/6 521/3/6
f 472/3/6 502/3/6 522/3/6
f 520/3/6 521/3/6 523/3/6
f 516/3/6 520/3/6 523/3/6
f 521/3/6 519/3/6 524/3/6
f 522/3/6 523/3/6 524/3/6
f 523/3/6 521/3/6 524/3/6
f 507/3/6 473/3/6 525/3/6
f 472/3/6 522/3/6 526/3/6
f 524/3/6 525/3/6 526/3/6
f 522/3/6 524/3/6 526/3/6
f 525/3/6 473/3/6 527/3/6
f 526/3/6 525/3/6 527/3/6
f 530/1/6 531/1/6 532/1/6
f 532/1/6 531/1/6 533/1/6
f 528/1/6 529/1/6 534/1/6
f 528/1/6 534/1/6 536/1/6
f 534/1/6 535/1/6 536/1/6
f 536/1/6 535/1/6 537/1/6
f 530/1/6 532/1/6 538/1/6
f 533/1/6 531/1/6 539/1/6
f 530/1/6 538/1/6 541/1/6
f 538/1/6 539/1/6 541/1/6
f 540/1/6 541/1/6 542/1/6
f 539/1/6 531/1/6 543/1/6
f 542/1/6 541/1/6 543/1/6
f 541/1/6 539/1/6 543/1/6
f 540/1/6 542/1/6 544/1/6
f 540/1/6 544/1/6 546/1/6
f 544/1/6 545/1/6 546/1/6
f 546/1/6 545/1/6 547/1/6
f 547/1/6 545/1/6 548/1/6
f 548/1/6 545/1/6 549/1/6
f 528/1/6 536/1/6 550/1/6
f 528/1/6 550/1/6 552/1/6
f 550/1/6 551/1/6 552/1/6
f 552/1/6 551/1/6 553/1/6
f 553/1/6 551/1/6 554/1/6
f 554/1/6 551/1/6 556/1/6
f 547/1/6 548/1/6 557/1/6
f 549/1/6 545/1/6 558/1/6
f 555/1/6 556/1/6 559/1/6
f 556/1/6 551/1/6 560/1/6
f 559/1/6 556/1/6 560/1/6
f 547/1/6 557/1/6 561/1/6
f 557/1/6 558/1/6 561/1/6
f 558/1/6 545/1/6 562/1/6
f 561/1/6 558/1/6 562/1/6
f 563/1/6 564/1/6 565/1/6
f 565/1/6 564/1/6 566/1/6
f 567/1/6 568/1/6 569/1/6
f 569/1/6 568/1/6 570/1/6
f 567/1/6 569/1/6 571/1/6
f 570/1/6 568/1/6 572/1/6
f 563/1/6 565/1/6 573/1/6
f 566/1/6 564/1/6 574/1/6
f 571/1/6 572/1/6 575/1/6
f 567/1/6 571/1/6 575/1/6
f 572/1/6 568/1/6 576/1/6
f 575/1/6 572/1/6 576/1/6
f 573/1/6 574/1/6 577/1/6
f 563/1/6 573/1/6 577/1/6
f 574/1/6 564/1/6 578/1/6
f 577/1/6 574/1/6 578/1/6
f 581/1/6 582/1/6 583/1/6
f 583/1/6 582/1/6 584/1/6
f 584/1/6 582/1/6 585/1/6
f 581/1/6 583/1/6 587/1/6
f 584/1/6 585/1/6 588/1/6
f 585/1/6 586/1/6 588/1/6
f 579/1/6 580/1/6 589/1/6
f 581/1/6 587/1/6 591/1/6
f 587/1/6 588/1/6 591/1/6
f 588/1/6 586/1/6 592/1/6
f 591/1/6 588/1/6 592/1/6
f 589/1/6 590/1/6 593/1/6
f 579/1/6 589/1/6 593/1/6
f 593/1/6 590/1/6 594/1/6
f 592/1/6 586/1/6 598/1/6
f 579/1/6 593/1/6 599/1/6
f 594/1/6 590/1/6 600/1/6
f 595/1/6 596/1/6 601/1/6
f 601/1/6 596/1/6 602/1/6
f 597/1/6 598/1/6 603/1/6
f 598/1/6 586/1/6 604/1/6
f 603/1/6 598/1/6 604/1/6
f 599/1/6 600/1/6 605/1/6
f 600/1/6 590/1/6 606/1/6
f 605/1/6 600/1/6 606/1/6
f 597/1/6 603/1/6 607/1/6
f 607/1/6 603/1/6 608/1/6
f 595/1/6 601/1/6 609/1/6
f 602/1/6 596/1/6 610/1/6
f 595/1/6 609/1/6 611/1/6
f 609/1/6 610/1/6 611/1/6
f 610/1/6 596/1/6 612/1/6
f 611/1/6 610/1/6 612/1/6
f 604/1/6 586/1/6 614/1/6
f 579/1/6 599/1/6 615/1/6
f 599/1/6 605/1/6 615/1/6
f 615/1/6 605/1/6 616/1/6
f 613/1/6 614/1/6 617/1/6
f 614/1/6 586/1/6 618/1/6
f 617/1/6 614/1/6 618/1/6
f 619/2/6 620/2/6 621/2/6
f 621/2/6 620/2/6 622/2/6
f 623/1/6 624/1/6 625/1/6
f 625/1/6 624/1/6 626/1/6
f 629/1/6 630/1/6 631/1/6
f 631/1/6 630/1/6 632/1/6
f 627/2/6 628/2/6 633/2/6
f 633/2/6 628/2/6 634/2/6
f 637/2/6 638/2/6 639/2/6
f 639/2/6 638/2/6 640/2/6
f 635/2/6 636/2/6 641/2/6
f 641/2/6 636/2/6 642/2/6
f 643/2/6 644/2/6 646/2/6
f 645/2/6 646/2/6 647/2/6
f 646/2/6 644/2/6 648/2/6
f 647/2/6 646/2/6 648/2/6
f 649/2/6 650/2/6 651/2/6
f 651/2/6 650/2/6 652/2/6
f 649/2/6 651/2/6 653/2/6
f 652/2/6 650/2/6 654/2/6
f 649/2/6 653/2/6 655/2/6
f 653/2/6 654/2/6 655/2/6
f 654/2/6 650/2/6 656/2/6
f 655/2/6 654/2/6 656/2/6
f 657/1/6 658/1/6 661/1/6
f 661/1/6 658/1/6 662/1/6
f 657/1/6 661/1/6 663/1/6
f 662/1/6 658/1/6 664/1/6
f 657/1/6 663/1/6 665/1/6
f 663/1/6 664/1/6 665/1/6
f 664/1/6 658/1/6 666/1/6
f 665/1/6 664/1/6 666/1/6
f 659/1/6 660/1/6 667/1/6
f 667/1/6 660/1/6 668/1/6
f 669/2/6 670/2/6 671/2/6
f 671/2/6 670/2/6 672/2/6
f 673/2/6 674/2/6 677/2/6
f 677/2/6 674/2/6 678/2/6
f 675/2/6 676/2/6 679/2/6
f 679/2/6 676/2/6 680/2/6
f 681/1/6 682/1/6 683/1/6
f 683/1/6 682/1/6 684/1/6
f 685/2/6 686/2/6 687/2/6
f 687/2/6 686/2/6 688/2/6
f 685/2/6 687/2/6 689/2/6
f 688/2/6 686/2/6 690/2/6
f 685/2/6 689/2/6 691/2/6
f 689/2/6 690/2/6 691/2/6
f 690/2/6 686/2/6 692/2/6
f 691/2/6 690/2/6 692/2/6
f 693/2/6 694/2/6 695/2/6
f 695/2/6 694/2/6 696/2/6
